:SAMPLES-PER-SECOND 30
:FULLY-SPECIFIED
:DEGREES
56
root  15.0365 39.7998 -0.398048 -45.6026 -88.2505 41.7077
RightUpLeg  -0.335984 -7.43049 -2.33705
RightLeg  9.13692 5.40647 0.582227
RightFoot  -5.98142 0.0314951 -1.53807
RightToes  -2.21189e-009 0 -3.6325e-017
Spine  6.98521 -1.34582 3.43126
Spine1  0.251172 -0.956253 -0.766408
HEad  -3.34968 3.308 -4.54175
LeftShoulder1  0.264499 1.56476 -5.83513
LeftArm  -22.0543 7.78408 -18.7592
LeftForeArm  5.36298 -4.71116 2.34353
LeftHand  -0.135865 1.20565 3.63489
RightShoulder  0.10946 -2.54792 3.57965
RightArm  -11.4471 -3.78473 11.358
RightForeArm  -2.88596 5.86723 -2.94861
RightHand  -0.134268 5.68256 -1.73326
LeftUpLeg  0.107163 5.19284 4.87717
LeftLeg  4.99617 -12.379 0.978771
LeftFoot  -2.2609 0.16656 -1.92694
LeftToes  -4.03379e-008 1.61488e-010 -5.81581e-011
57
root  15.0133 39.7902 -0.549206 -41.2787 -88.1547 37.3315
RightUpLeg  -0.198499 -7.33976 -2.06571
RightLeg  9.09538 5.13525 0.586922
RightFoot  -6.06092 0.0430251 -1.82417
RightToes  -2.21189e-009 0 -3.6325e-017
Spine  7.14844 -1.34731 3.81227
Spine1  0.467629 -0.855634 -1.17967
HEad  -3.64043 3.13904 -4.15647
LeftShoulder1  0.303973 1.4048 -6.83675
LeftArm  -22.4233 7.2152 -19.92
LeftForeArm  6.32861 -4.89765 2.41287
LeftHand  -0.153597 0.862573 3.86755
RightShoulder  0.101051 -2.70271 4.85903
RightArm  -11.6762 -4.07032 12.7107
RightForeArm  -3.17016 7.55831 -2.71283
RightHand  -0.133252 6.08162 -1.6836
LeftUpLeg  0.115146 5.32105 5.20541
LeftLeg  5.09457 -12.7148 0.905477
LeftFoot  -2.3431 0.190132 -2.23673
LeftToes  -4.03379e-008 1.61488e-010 -5.81581e-011
58
root  15.0113 39.7668 -0.693499 -40.3006 -88.0529 36.5424
RightUpLeg  -0.538043 -7.56204 -2.02219
RightLeg  9.43404 5.18628 0.913437
RightFoot  -6.26767 0.0486743 -2.05356
RightToes  -2.21189e-009 0 -3.6325e-017
Spine  7.3191 -1.50673 4.02726
Spine1  0.530892 -0.97665 -1.28099
HEad  -3.82367 3.00577 -4.06874
LeftShoulder1  0.287874 1.65622 -8.02376
LeftArm  -22.3855 7.08206 -21.1834
LeftForeArm  7.64152 -5.17936 2.29654
LeftHand  -0.163543 0.534589 3.89128
RightShoulder  0.132019 -2.51004 5.6885
RightArm  -12.4673 -4.12018 15.1828
RightForeArm  -1.85882 8.69429 -2.7677
RightHand  -0.194144 5.66908 -2.35346
LeftUpLeg  -0.198303 5.14293 5.35766
LeftLeg  5.26679 -12.63 0.881874
LeftFoot  -2.41657 0.203567 -2.41719
LeftToes  -4.03379e-008 1.61488e-010 -5.81581e-011
59
root  14.9985 39.7444 -0.830776 -38.578 -87.8863 34.8134
RightUpLeg  -0.545193 -7.70563 -1.97252
RightLeg  9.58134 5.1341 1.06445
RightFoot  -6.50004 0.0391736 -1.96827
RightToes  -2.21189e-009 0 -3.6325e-017
Spine  7.54809 -1.55601 4.24725
Spine1  0.807246 -0.987388 -1.30033
HEad  -4.12281 2.61488 -4.11374
LeftShoulder1  0.283772 1.77779 -9.01767
LeftArm  -22.5587 6.80843 -23.2394
LeftForeArm  9.46706 -5.08411 2.3376
LeftHand  -0.160141 0.257822 3.62422
RightShoulder  0.121756 -2.6598 7.06889
RightArm  -12.8081 -3.93006 17.5318
RightForeArm  -0.868448 9.44365 -2.68243
RightHand  -0.24794 5.77836 -2.90166
LeftUpLeg  -0.377782 4.45749 5.33324
LeftLeg  5.55377 -12.1792 1.1262
LeftFoot  -2.50276 0.217474 -2.62769
LeftToes  -4.03379e-008 1.61488e-010 -5.81581e-011
60
root  15.0018 39.7226 -0.946054 -38.7193 -87.61 35.0337
RightUpLeg  -0.790467 -8.13675 -2.18784
RightLeg  10.0036 5.39206 1.46632
RightFoot  -6.61247 0.0466761 -2.21393
RightToes  -2.21189e-009 0 -3.6325e-017
Spine  7.59186 -1.53927 4.75648
Spine1  1.34534 -0.846563 -1.68066
HEad  -4.50092 2.0963 -4.30715
LeftShoulder1  0.278854 1.94559 -10.5778
LeftArm  -22.0089 5.75944 -24.8898
LeftForeArm  9.45161 -4.50105 2.01947
LeftHand  -0.138896 0.802499 3.45336
RightShoulder  0.103081 -2.85429 8.83201
RightArm  -12.5196 -4.02576 19.6647
RightForeArm  0.131683 10.179 -2.40001
RightHand  -0.271473 5.56821 -3.1904
LeftUpLeg  -0.833605 3.42311 5.15393
LeftLeg  6.21141 -11.2653 1.18372
LeftFoot  -2.65195 0.213961 -2.6034
LeftToes  -4.03379e-008 1.61488e-010 -5.81581e-011
61
root  15.0042 39.6984 -1.04926 -35.0095 -87.1128 31.5635
RightUpLeg  -1.08343 -8.48362 -2.34219
RightLeg  10.2319 5.22252 1.75188
RightFoot  -6.8282 0.0450978 -2.316
RightToes  -2.21189e-009 0 -3.6325e-017
Spine  7.55733 -1.60521 5.05357
Spine1  1.6305 -0.894785 -1.63081
HEad  -4.71967 2.45134 -5.0056
LeftShoulder1  0.31067 1.9016 -12.2699
LeftArm  -21.3566 5.421 -26.6158
LeftForeArm  10.8041 -4.09491 1.67907
LeftHand  -0.138322 0.519486 3.25974
RightShoulder  0.0861603 -3.00676 10.7459
RightArm  -11.9688 -3.53666 21.846
RightForeArm  1.12333 9.65411 -2.30779
RightHand  -0.281052 5.76372 -3.24294
LeftUpLeg  -1.73265 1.84319 4.95232
LeftLeg  7.36912 -9.414 1.13888
LeftFoot  -3.00064 0.201359 -2.51423
LeftToes  -4.03379e-008 1.61488e-010 -5.81581e-011
62
root  14.9889 39.6659 -1.09734 -30.1953 -86.4504 26.7911
RightUpLeg  -1.18575 -8.82234 -2.5285
RightLeg  10.6075 4.85772 1.91243
RightFoot  -7.13555 0.0377915 -2.34424
RightToes  -2.21189e-009 0 -3.6325e-017
Spine  7.66808 -1.82041 5.8929
Spine1  1.92494 -0.945054 -2.13713
HEad  -4.38194 2.2767 -5.17907
LeftShoulder1  0.283753 2.11473 -13.4319
LeftArm  -21.0476 5.6518 -29.1201
LeftForeArm  12.7553 -4.73213 1.34038
LeftHand  -0.120463 1.249 3.24919
RightShoulder  0.0463995 -3.24836 12.9742
RightArm  -10.9277 -3.098 23.9189
RightForeArm  2.54054 8.91636 -2.0719
RightHand  -0.239142 5.42838 -2.88251
LeftUpLeg  -2.64415 0.905714 4.93447
LeftLeg  8.96503 -6.13451 0.746566
LeftFoot  -3.70728 0.216347 -2.91682
LeftToes  -4.03379e-008 1.61488e-010 -5.81581e-011
